<svg xmlns="http://www.w3.org/2000/svg" viewBox="0 0 128 128">
    <!-- Gradient Definitions -->
    <defs>
        <linearGradient id="multifileBg" x1="0%" y1="0%" x2="100%" y2="100%">
            <stop offset="0%" style="stop-color:#4B63D3"/>
            <stop offset="100%" style="stop-color:#5B73E3"/>
        </linearGradient>
    </defs>

    <!-- Background -->
    <circle cx="64" cy="64" r="60" fill="url(#multifileBg)" opacity="0.1"/>
    
    <!-- Multiple Files Stack -->
    <g transform="translate(64 64) scale(1.0) translate(-64 -64)">
        <!-- Back File -->
        <rect x="28" y="28" width="56" height="56" fill="#F8FAFF" stroke="#4B63D3" stroke-width="3" rx="4"/>
        
        <!-- Middle File -->
        <rect x="36" y="36" width="56" height="56" fill="#F8FAFF" stroke="#4B63D3" stroke-width="3" rx="4"/>
        
        <!-- Front File -->
        <rect x="44" y="44" width="56" height="56" fill="#F8FAFF" stroke="#4B63D3" stroke-width="3" rx="4"/>
        
        <!-- File Content Lines (with text-like segments) -->
        <!-- Header line in red -->
        <line x1="52" y1="57" x2="70" y2="57" stroke="#DC3545" stroke-width="3"/>
        <line x1="74" y1="57" x2="92" y2="57" stroke="#DC3545" stroke-width="3"/>
        
        <!-- Content lines in blue -->
        <line x1="52" y1="66" x2="88" y2="66" stroke="#4B63D3" stroke-width="2" opacity="0.7"/>
        <line x1="52" y1="75" x2="65" y2="75" stroke="#4B63D3" stroke-width="2" opacity="0.7"/>
        <line x1="69" y1="75" x2="82" y2="75" stroke="#4B63D3" stroke-width="2" opacity="0.7"/>
        <line x1="52" y1="84" x2="75" y2="84" stroke="#4B63D3" stroke-width="2" opacity="0.7"/>
        <line x1="79" y1="84" x2="88" y2="84" stroke="#4B63D3" stroke-width="2" opacity="0.7"/>
        <line x1="52" y1="93" x2="85" y2="93" stroke="#4B63D3" stroke-width="2" opacity="0.7"/>
    </g>
    
    <!-- Generate Symbol -->
    <g transform="translate(100, 28)">
        <circle cx="0" cy="0" r="12" fill="#DC3545"/>
        <path d="M-6 0 L6 0 M0 -6 L0 6" stroke="white" stroke-width="2.5" stroke-linecap="round"/>
    </g>
</svg>